<svg width="200" height="44" viewBox="0 0 200 44" fill="none" xmlns="http://www.w3.org/2000/svg">
<path d="M13.2803 8.92771C15.7579 8.92771 17.7664 6.92917 17.7664 4.46385C17.7664 1.99854 15.7579 0 13.2803 0C10.8026 0 8.79408 1.99854 8.79408 4.46385C8.79408 6.92917 10.8026 8.92771 13.2803 8.92771Z" fill="white"/>
<path d="M13.2803 26.4579C15.7579 26.4579 17.7664 24.4594 17.7664 21.9941C17.7664 19.5288 15.7579 17.5302 13.2803 17.5302C10.8026 17.5302 8.79408 19.5288 8.79408 21.9941C8.79408 24.4594 10.8026 26.4579 13.2803 26.4579Z" fill="white"/>
<path d="M13.2862 44C15.7638 44 17.7724 42.0015 17.7724 39.5361C17.7724 37.0708 15.7638 35.0723 13.2862 35.0723C10.8085 35.0723 8.80002 37.0708 8.80002 39.5361C8.80002 42.0015 10.8085 44 13.2862 44Z" fill="white"/>
<path d="M4.51588 17.7372C6.99352 17.7372 9.00205 15.7386 9.00205 13.2733C9.00205 10.808 6.99352 8.80946 4.51588 8.80946C2.03824 8.80946 0.0297089 10.808 0.0297089 13.2733C0.0297089 15.7386 2.03824 17.7372 4.51588 17.7372Z" fill="white"/>
<path d="M22.1338 17.7372C24.6114 17.7372 26.6199 15.7386 26.6199 13.2733C26.6199 10.808 24.6114 8.80946 22.1338 8.80946C19.6561 8.80946 17.6476 10.808 17.6476 13.2733C17.6476 15.7386 19.6561 17.7372 22.1338 17.7372Z" fill="white"/>
<path d="M4.48617 35.2438C6.96381 35.2438 8.97234 33.2452 8.97234 30.7799C8.97234 28.3146 6.96381 26.316 4.48617 26.316C2.00853 26.316 0 28.3146 0 30.7799C0 33.2452 2.00853 35.2438 4.48617 35.2438Z" fill="white"/>
<path d="M22.0684 35.2438C24.546 35.2438 26.5546 33.2452 26.5546 30.7799C26.5546 28.3146 24.546 26.316 22.0684 26.316C19.5907 26.316 17.5822 28.3146 17.5822 30.7799C17.5822 33.2452 19.5907 35.2438 22.0684 35.2438Z" fill="white"/>
<path d="M193.755 14.0656V10.9793H192.62V10.3703H195.567V10.9793H194.432V14.0656H193.761H193.755ZM196.185 14.0656V10.3703H196.797L198.093 12.1322L199.388 10.3703H200V14.0656H199.329V11.5469L198.093 13.1787L196.857 11.5469V14.0656H196.185Z" fill="white"/>
<path d="M52.5744 34.416C46.0145 34.416 41.8789 31.2174 41.7897 26.0677V25.843H46.1689L46.1808 26.05C46.3175 28.8288 48.8904 30.703 52.5803 30.703C55.9019 30.703 58.136 29.3254 58.136 27.2798C58.136 24.5601 55.8484 24.2881 52.3961 23.886L52.1347 23.8565C46.9592 23.2239 42.3126 22.2187 42.3126 16.9567C42.3126 12.617 46.2105 9.58397 51.796 9.58397H51.9267C57.8152 9.63718 61.5526 12.5224 61.9151 17.3115L61.9329 17.548H57.5537L57.53 17.3529C57.2507 14.9288 54.9987 13.297 51.9267 13.297C48.6646 13.297 46.5611 14.6213 46.5611 16.6729C46.5611 19.0024 48.6646 19.369 52.3783 19.8183C57.6547 20.4509 62.3845 21.4797 62.3845 27.0019C62.3845 31.3711 58.3559 34.416 52.5863 34.416H52.5744Z" fill="white"/>
<path d="M76.2649 9.81456C73.2108 9.81456 70.418 10.932 68.2789 12.7648V10.0865H64.4702V43.1427H68.2789V31.2351C70.418 33.068 73.2108 34.1854 76.2649 34.1854C83.0269 34.1854 88.5113 28.7283 88.5113 22C88.5113 15.2717 83.0269 9.80864 76.2649 9.80864V9.81456ZM76.2649 30.0054C72.1828 30.0054 68.8078 26.9782 68.2789 23.0642C68.2314 22.7154 68.2136 22.3666 68.2136 22.0059C68.2136 21.6452 68.2314 21.2964 68.2789 20.9476C68.8078 17.0218 72.1828 13.9946 76.2649 13.9946C80.7036 13.9946 84.3163 17.5775 84.3163 22.0059C84.3163 26.4343 80.7036 30.0113 76.2649 30.0113V30.0054Z" fill="white"/>
<path d="M102.19 9.81456C95.4277 9.81456 89.9433 15.2717 89.9433 22C89.9433 28.7283 95.4277 34.1854 102.19 34.1854C108.952 34.1854 114.436 28.7283 114.436 22C114.436 15.2717 108.952 9.81456 102.19 9.81456ZM102.19 30.0113C97.745 30.0113 94.1442 26.4284 94.1442 22C94.1442 17.5716 97.745 13.9887 102.19 13.9887C106.634 13.9887 110.235 17.5716 110.235 22C110.235 26.4284 106.634 30.0113 102.19 30.0113Z" fill="white"/>
<path d="M192.258 35.2024L188.134 30.4133C190.237 28.2257 191.533 25.2695 191.533 22C191.533 15.2717 186.048 9.81456 179.286 9.81456C172.524 9.81456 167.04 15.2717 167.04 22C167.04 28.7283 172.524 34.1854 179.286 34.1854C181.218 34.1854 183.036 33.7302 184.658 32.9379L186.607 35.1964H192.264L192.258 35.2024ZM179.28 30.0113C174.836 30.0113 171.235 26.4284 171.235 22C171.235 17.5716 174.836 13.9887 179.28 13.9887C183.725 13.9887 187.326 17.5716 187.326 22C187.326 23.9925 186.589 25.8135 185.377 27.2206L183.713 25.2873H178.056L181.782 29.6092C180.992 29.8635 180.154 30.0113 179.28 30.0113Z" fill="white"/>
<path d="M153.035 9.81456C146.261 9.81456 140.783 15.2717 140.783 22.0059C140.783 28.7401 146.261 34.1913 153.035 34.1913C157.955 34.1913 162.191 31.3061 164.14 27.1379H159.203C157.729 28.8879 155.513 30.0054 153.035 30.0054C149.042 30.0054 145.744 27.1319 145.102 23.3539H165.21C165.252 22.9046 165.281 22.4612 165.281 22.0059C165.281 15.2776 159.809 9.81456 153.041 9.81456H153.035ZM145.364 19.5759C146.398 16.33 149.434 13.9887 153.035 13.9887C156.636 13.9887 159.672 16.33 160.694 19.5759H145.358H145.364Z" fill="white"/>
<path d="M136.386 34.1381C131.852 34.1381 129.921 32.2166 129.921 27.7054V3.18677H134.211V9.86777H140.408V13.8113H134.211V27.6581C134.211 29.5797 134.829 30.1946 136.76 30.1946H140.783V34.1381H136.38H136.386Z" fill="white"/>
<path d="M123.569 34.1381C119.035 34.1381 117.104 32.2166 117.104 27.7054V3.18677H121.394V9.86777H127.591V13.8113H121.394V27.6581C121.394 29.5797 122.012 30.1946 123.943 30.1946H127.966V34.1381H123.563H123.569Z" fill="white"/>
</svg>
