<svg width="324" height="75" viewBox="0 0 324 75" fill="none" xmlns="http://www.w3.org/2000/svg">
<path d="M22.35 15.1C26.5197 15.1 29.9 11.7197 29.9 7.55C29.9 3.38025 26.5197 0 22.35 0C18.1802 0 14.8 3.38025 14.8 7.55C14.8 11.7197 18.1802 15.1 22.35 15.1Z" fill="#231F20"/>
<path d="M22.35 44.75C26.5197 44.75 29.9 41.3698 29.9 37.2C29.9 33.0303 26.5197 29.65 22.35 29.65C18.1802 29.65 14.8 33.0303 14.8 37.2C14.8 41.3698 18.1802 44.75 22.35 44.75Z" fill="#231F20"/>
<path d="M22.36 74.42C26.5297 74.42 29.91 71.0398 29.91 66.87C29.91 62.7003 26.5297 59.32 22.36 59.32C18.1902 59.32 14.81 62.7003 14.81 66.87C14.81 71.0398 18.1902 74.42 22.36 74.42Z" fill="#231F20"/>
<path d="M7.59999 30C11.7697 30 15.15 26.6197 15.15 22.45C15.15 18.2802 11.7697 14.9 7.59999 14.9C3.43024 14.9 0.0499878 18.2802 0.0499878 22.45C0.0499878 26.6197 3.43024 30 7.59999 30Z" fill="#231F20"/>
<path d="M37.25 30C41.4198 30 44.8 26.6197 44.8 22.45C44.8 18.2802 41.4198 14.9 37.25 14.9C33.0803 14.9 29.7 18.2802 29.7 22.45C29.7 26.6197 33.0803 30 37.25 30Z" fill="#231F20"/>
<path d="M7.55 59.61C11.7197 59.61 15.1 56.2297 15.1 52.06C15.1 47.8902 11.7197 44.51 7.55 44.51C3.38025 44.51 0 47.8902 0 52.06C0 56.2297 3.38025 59.61 7.55 59.61Z" fill="#231F20"/>
<path d="M37.14 59.61C41.3097 59.61 44.69 56.2297 44.69 52.06C44.69 47.8902 41.3097 44.51 37.14 44.51C32.9702 44.51 29.59 47.8902 29.59 52.06C29.59 56.2297 32.9702 59.61 37.14 59.61Z" fill="#231F20"/>
<path d="M88.48 58.21C77.44 58.21 70.48 52.8 70.33 44.09V43.71H77.7L77.72 44.06C77.95 48.76 82.28 51.93 88.49 51.93C94.08 51.93 97.84 49.6 97.84 46.14C97.84 41.54 93.99 41.08 88.18 40.4L87.74 40.35C79.03 39.28 71.21 37.58 71.21 28.68C71.21 21.34 77.77 16.21 87.17 16.21H87.39C97.3 16.3 103.59 21.18 104.2 29.28L104.23 29.68H96.86L96.82 29.35C96.35 25.25 92.56 22.49 87.39 22.49C81.9 22.49 78.36 24.73 78.36 28.2C78.36 32.14 81.9 32.76 88.15 33.52C97.03 34.59 104.99 36.33 104.99 45.67C104.99 53.06 98.21 58.21 88.5 58.21H88.48Z" fill="#231F20"/>
<path d="M128.35 16.6C123.21 16.6 118.51 18.49 114.91 21.59V17.06H108.5V72.97H114.91V52.83C118.51 55.93 123.21 57.82 128.35 57.82C139.73 57.82 148.96 48.59 148.96 37.21C148.96 25.83 139.73 16.59 128.35 16.59V16.6ZM128.35 50.75C121.48 50.75 115.8 45.63 114.91 39.01C114.83 38.42 114.8 37.83 114.8 37.22C114.8 36.61 114.83 36.02 114.91 35.43C115.8 28.79 121.48 23.67 128.35 23.67C135.82 23.67 141.9 29.73 141.9 37.22C141.9 44.71 135.82 50.76 128.35 50.76V50.75Z" fill="#231F20"/>
<path d="M171.98 16.6C160.6 16.6 151.37 25.83 151.37 37.21C151.37 48.59 160.6 57.82 171.98 57.82C183.36 57.82 192.59 48.59 192.59 37.21C192.59 25.83 183.36 16.6 171.98 16.6ZM171.98 50.76C164.5 50.76 158.44 44.7 158.44 37.21C158.44 29.72 164.5 23.66 171.98 23.66C179.46 23.66 185.52 29.72 185.52 37.21C185.52 44.7 179.46 50.76 171.98 50.76Z" fill="#231F20"/>
<path d="M323.56 59.54L316.62 51.44C320.16 47.74 322.34 42.74 322.34 37.21C322.34 25.83 313.11 16.6 301.73 16.6C290.35 16.6 281.12 25.83 281.12 37.21C281.12 48.59 290.35 57.82 301.73 57.82C304.98 57.82 308.04 57.05 310.77 55.71L314.05 59.53H323.57L323.56 59.54ZM301.72 50.76C294.24 50.76 288.18 44.7 288.18 37.21C288.18 29.72 294.24 23.66 301.72 23.66C309.2 23.66 315.26 29.72 315.26 37.21C315.26 40.58 314.02 43.66 311.98 46.04L309.18 42.77H299.66L305.93 50.08C304.6 50.51 303.19 50.76 301.72 50.76Z" fill="#231F20"/>
<path d="M257.55 16.6C246.15 16.6 236.93 25.83 236.93 37.22C236.93 48.61 246.15 57.83 257.55 57.83C265.83 57.83 272.96 52.95 276.24 45.9H267.93C265.45 48.86 261.72 50.75 257.55 50.75C250.83 50.75 245.28 45.89 244.2 39.5H278.04C278.11 38.74 278.16 37.99 278.16 37.22C278.16 25.84 268.95 16.6 257.56 16.6H257.55ZM244.64 33.11C246.38 27.62 251.49 23.66 257.55 23.66C263.61 23.66 268.72 27.62 270.44 33.11H244.63H244.64Z" fill="#231F20"/>
<path d="M229.53 57.74C221.9 57.74 218.65 54.49 218.65 46.86V5.39001H225.87V16.69H236.3V23.36H225.87V46.78C225.87 50.03 226.91 51.07 230.16 51.07H236.93V57.74H229.52H229.53Z" fill="#231F20"/>
<path d="M207.96 57.74C200.33 57.74 197.08 54.49 197.08 46.86V5.39001H204.3V16.69H214.73V23.36H204.3V46.78C204.3 50.03 205.34 51.07 208.59 51.07H215.36V57.74H207.95H207.96Z" fill="#231F20"/>
</svg>
