<svg width="28" height="28" viewBox="0 0 28 28" fill="none" xmlns="http://www.w3.org/2000/svg">
<circle cx="14" cy="14" r="14" fill="black"/>
<path d="M14 22.0501L12.8722 21.0389C11.563 19.8593 10.4806 18.8417 9.62501 17.9862C8.76945 17.1306 8.0889 16.3658 7.58334 15.6917C7.07778 15.0047 6.7213 14.376 6.5139 13.8056C6.31945 13.2352 6.22223 12.6519 6.22223 12.0556C6.22223 10.8371 6.63056 9.8195 7.44723 9.00283C8.2639 8.18617 9.28149 7.77783 10.5 7.77783C11.1741 7.77783 11.8157 7.92042 12.425 8.20561C13.0343 8.4908 13.5593 8.89265 14 9.41117C14.4407 8.89265 14.9657 8.4908 15.575 8.20561C16.1843 7.92042 16.8259 7.77783 17.5 7.77783C18.7185 7.77783 19.7361 8.18617 20.5528 9.00283C21.3695 9.8195 21.7778 10.8371 21.7778 12.0556C21.7778 12.6519 21.6741 13.2352 21.4667 13.8056C21.2722 14.376 20.9222 15.0047 20.4167 15.6917C19.9111 16.3658 19.2306 17.1306 18.375 17.9862C17.5195 18.8417 16.437 19.8593 15.1278 21.0389L14 22.0501ZM14 19.9501C15.2445 18.8352 16.2685 17.8825 17.0722 17.0917C17.8759 16.288 18.5111 15.5945 18.9778 15.0112C19.4445 14.4149 19.7685 13.8899 19.95 13.4362C20.1315 12.9695 20.2222 12.5093 20.2222 12.0556C20.2222 11.2778 19.963 10.6297 19.4445 10.1112C18.9259 9.59265 18.2778 9.33339 17.5 9.33339C16.8907 9.33339 16.3269 9.50839 15.8083 9.85839C15.2898 10.1954 14.9333 10.6297 14.7389 11.1612H13.2611C13.0667 10.6297 12.7102 10.1954 12.1917 9.85839C11.6732 9.50839 11.1093 9.33339 10.5 9.33339C9.72223 9.33339 9.07408 9.59265 8.55556 10.1112C8.03704 10.6297 7.77778 11.2778 7.77778 12.0556C7.77778 12.5093 7.86853 12.9695 8.05001 13.4362C8.23149 13.8899 8.55556 14.4149 9.02223 15.0112C9.4889 15.5945 10.1241 16.288 10.9278 17.0917C11.7315 17.8825 12.7556 18.8352 14 19.9501Z" fill="white"/>
</svg>
