<svg width="25" height="27" viewBox="0 0 25 27" fill="none" xmlns="http://www.w3.org/2000/svg">
<path d="M24.9944 11.0707C22.5396 11.0759 20.1406 10.3534 18.1433 9.00316V18.4283C18.1433 20.174 17.5798 21.8776 16.5254 23.3122C15.471 24.7468 13.9813 25.8439 12.2518 26.4557C10.5223 27.0675 8.63661 27.1677 6.84573 26.7352C5.05485 26.3027 3.44808 25.3692 2.23184 24.0559C1.01561 22.7426 0.262434 21.1023 0.0560087 19.3671C-0.150417 17.6319 0.217802 15.8808 1.09371 14.346C1.96963 12.8112 3.32534 11.5665 4.97674 10.7753C6.62814 9.98417 8.48597 9.69409 10.3159 9.93143V14.673C9.47904 14.4251 8.58082 14.4304 7.74954 14.6941C6.91826 14.9578 6.19298 15.4641 5.68528 16.134C5.17759 16.8038 4.90421 17.616 4.90979 18.4494C4.91537 19.2827 5.1999 20.0844 5.71876 20.7542C6.23761 21.424 6.96847 21.9198 7.80533 22.173C8.64219 22.4262 9.54041 22.4262 10.3717 22.1677C11.203 21.9093 11.9338 21.4082 12.4471 20.7384C12.9604 20.0686 13.2393 19.2563 13.2393 18.4283V0H18.1489C18.1433 0.390295 18.1824 0.785865 18.2549 1.17089C18.4279 2.03059 18.7793 2.85337 19.2982 3.58122C19.817 4.30907 20.4865 4.93143 21.262 5.40612C22.3723 6.09704 23.6722 6.46624 25 6.46624V11.0759L24.9944 11.0707Z" fill="#4D4D4D"/>
</svg>
