<svg width="25" height="25" viewBox="0 0 25 25" fill="none" xmlns="http://www.w3.org/2000/svg">
<path d="M18.4375 6.0625H18.4487M6.625 1H17.875C20.9816 1 23.5 3.5184 23.5 6.625V17.875C23.5 20.9816 20.9816 23.5 17.875 23.5H6.625C3.5184 23.5 1 20.9816 1 17.875V6.625C1 3.5184 3.5184 1 6.625 1ZM16.75 11.5413C16.8888 12.4775 16.7289 13.4337 16.293 14.2739C15.857 15.114 15.1673 15.7953 14.3218 16.2209C13.4764 16.6464 12.5183 16.7945 11.5838 16.6442C10.6493 16.4938 9.78598 16.0526 9.11669 15.3833C8.44741 14.714 8.0062 13.8507 7.85583 12.9162C7.70545 11.9817 7.85357 11.0236 8.27912 10.1782C8.70466 9.33271 9.38596 8.64296 10.2261 8.20702C11.0663 7.77109 12.0225 7.61116 12.9587 7.75C13.9138 7.89162 14.798 8.33665 15.4807 9.01935C16.1634 9.70204 16.6084 10.5862 16.75 11.5413Z" stroke="#4D4D4D" stroke-width="2" stroke-linecap="round" stroke-linejoin="round"/>
</svg>
